<svg xmlns="http://www.w3.org/2000/svg" viewBox="0 0 57.45 57.46"><defs><style>.cls-1{fill:#fff}</style></defs><title>instagram-icon</title><g id="Layer_2" data-name="Layer 2"><g id="Layer_1-2" data-name="Layer 1"><path d="M28.73,0C20.93,0,20,0,16.89.18a21.16,21.16,0,0,0-7,1.33A14.14,14.14,0,0,0,4.83,4.82,14.16,14.16,0,0,0,1.51,9.91a20.91,20.91,0,0,0-1.33,7C0,20,0,20.93,0,28.73s0,8.78.18,11.84a21.16,21.16,0,0,0,1.33,7,14.1,14.1,0,0,0,3.31,5.08A14,14,0,0,0,9.91,56a21.15,21.15,0,0,0,7,1.33c3.07.14,4.05.18,11.85.18s8.78,0,11.84-.18a21.16,21.16,0,0,0,7-1.33,14.8,14.8,0,0,0,8.4-8.4,21.43,21.43,0,0,0,1.33-7c.14-3.06.17-4,.17-11.84s0-8.78-.17-11.84a21.43,21.43,0,0,0-1.33-7,14.7,14.7,0,0,0-8.41-8.4,21.15,21.15,0,0,0-7-1.33C37.5,0,36.53,0,28.72,0ZM26.15,5.18h2.58c7.67,0,8.58,0,11.61.17a15.49,15.49,0,0,1,5.33,1A8.88,8.88,0,0,1,49,8.48a8.9,8.9,0,0,1,2.15,3.31,15.49,15.49,0,0,1,1,5.33c.14,3,.17,3.94.17,11.6s0,8.58-.17,11.61a15.74,15.74,0,0,1-1,5.33,9.54,9.54,0,0,1-5.45,5.45,15.74,15.74,0,0,1-5.33,1c-3,.14-3.94.17-11.61.17s-8.58,0-11.61-.17a16,16,0,0,1-5.33-1A8.79,8.79,0,0,1,8.49,49a8.79,8.79,0,0,1-2.15-3.3,15.49,15.49,0,0,1-1-5.33c-.14-3-.17-3.94-.17-11.61s0-8.58.17-11.61a15.49,15.49,0,0,1,1-5.33,8.79,8.79,0,0,1,2.15-3.3,8.79,8.79,0,0,1,3.3-2.15,15.67,15.67,0,0,1,5.33-1c2.65-.11,3.68-.15,9-.16ZM44.07,10a3.45,3.45,0,1,0,3.44,3.45A3.44,3.44,0,0,0,44.07,10ZM28.73,14A14.75,14.75,0,1,0,43.48,28.73,14.75,14.75,0,0,0,28.73,14Zm0,5.18a9.58,9.58,0,1,1-9.57,9.57A9.57,9.57,0,0,1,28.73,19.16Z" class="cls-1"/></g></g></svg>