<svg xmlns="http://www.w3.org/2000/svg" xmlns:xlink="http://www.w3.org/1999/xlink" viewBox="0 0 67.11 62.48"><defs><style>.cls-1{fill:none;}.cls-2{clip-path:url(#clip-path);}.cls-3{fill:#fff;}</style><clipPath id="clip-path" transform="translate(0.95 0)"><rect class="cls-1" width="67" height="63"/></clipPath></defs><title>linkedin-icon</title><g id="Layer_2" data-name="Layer 2"><g id="Layer_1-2" data-name="Layer 1"><g class="cls-2"><path class="cls-3" d="M56.23,53.24H46.29V38.74c0-3.46-.07-7.91-5.18-7.91s-6,3.77-6,7.66V53.24H25.2V23.42h9.54V27.5h.14a10,10,0,0,1,4-3.62,11.05,11.05,0,0,1,5.43-1.2c10.08,0,11.93,6.17,11.93,14.2ZM14,19.35a6.11,6.11,0,0,1-3.21-.91A5.42,5.42,0,0,1,8.65,16a4.94,4.94,0,0,1-.33-3.1A5.26,5.26,0,0,1,9.9,10.17,5.9,5.9,0,0,1,12.85,8.7,6.19,6.19,0,0,1,16.18,9a5.63,5.63,0,0,1,2.59,2,5,5,0,0,1,.54,5,5.47,5.47,0,0,1-1.25,1.74,5.85,5.85,0,0,1-1.87,1.17A6.14,6.14,0,0,1,14,19.35Zm5,33.89H9V23.42H19ZM61.19,0H4A5.14,5.14,0,0,0,.52,1.3,4.38,4.38,0,0,0-.95,4.51V58A4.4,4.4,0,0,0,.52,61.18,5.09,5.09,0,0,0,4,62.48H61.19a5.09,5.09,0,0,0,3.49-1.3A4.43,4.43,0,0,0,66.16,58V4.5a4.42,4.42,0,0,0-1.49-3.21A5.09,5.09,0,0,0,61.19,0" transform="translate(0.95 0)"/></g></g></g></svg>