<svg xmlns="http://www.w3.org/2000/svg" viewBox="0 0 73.5 60.5"><defs><style>.cls-1{fill:#fff}</style></defs><title>twitter-icon</title><g id="Layer_2" data-name="Layer 2"><g id="Layer_1-2" data-name="Layer 1"><path d="M23.11,60.5C50.85,60.5,66,37.22,66,17c0-.66,0-1.32,0-2A30.75,30.75,0,0,0,73.5,7.16a29.67,29.67,0,0,1-8.66,2.4,15.29,15.29,0,0,0,6.64-8.44,30.11,30.11,0,0,1-9.58,3.7A15,15,0,0,0,50.89,0,15.18,15.18,0,0,0,35.81,15.27a15.34,15.34,0,0,0,.39,3.48,42.68,42.68,0,0,1-31.09-16,15.45,15.45,0,0,0-2,7.68A15.29,15.29,0,0,0,9.78,23.18,14.69,14.69,0,0,1,3,21.27v.2a15.24,15.24,0,0,0,12.1,15,14.94,14.94,0,0,1-4,.54,14.68,14.68,0,0,1-2.83-.28A15.11,15.11,0,0,0,22.33,47.31,30,30,0,0,1,3.59,53.85,30.49,30.49,0,0,1,0,53.64,42.31,42.31,0,0,0,23.12,60.5" class="cls-1"/></g></g></svg>